<?xml version="1.0" encoding="utf-8"?>
<!-- Generator: Adobe Illustrator 16.0.0, SVG Export Plug-In . SVG Version: 6.00 Build 0)  -->
<!DOCTYPE svg PUBLIC "-//W3C//DTD SVG 1.1//EN" "http://www.w3.org/Graphics/SVG/1.1/DTD/svg11.dtd">
<svg version="1.1" id="Layer_1" xmlns="http://www.w3.org/2000/svg" xmlns:xlink="http://www.w3.org/1999/xlink" x="0px" y="0px"
	 width="540px" height="83.209px" viewBox="1153.12 0 540 83.209" enable-background="new 1153.12 0 540 83.209"
	 xml:space="preserve">
<g>
	<path fill="#11A1D3" d="M1557.124,7.672c-5.493-3.846-11.931-5.879-18.616-5.879c-10.606,0-20.567,5.181-26.645,13.859
		c-3.973,5.674-5.873,12.189-5.863,18.641h-0.016v41.978h8.34V56.033c1.615,1.795,3.458,3.438,5.52,4.881
		c5.493,3.846,11.931,5.878,18.615,5.878c10.607,0,20.568-5.181,26.646-13.861c4.979-7.11,6.891-15.734,5.383-24.282
		C1568.981,20.1,1564.235,12.65,1557.124,7.672z M1558.274,48.148c-4.519,6.453-11.926,10.305-19.815,10.305
		c-4.965,0-9.747-1.512-13.832-4.371c-10.91-7.641-13.571-22.736-5.933-33.648c4.518-6.451,11.925-10.302,19.813-10.302
		c4.966,0,9.748,1.512,13.834,4.372c5.286,3.701,8.813,9.238,9.935,15.593C1563.396,36.452,1561.975,42.862,1558.274,48.148z"/>
	<path fill="#11A1D3" d="M1584.052,11.861l4.549,1.566c1.046,0.36,1.896-0.196,1.896-1.243v-7.96c0-1.046-0.851-2.187-1.896-2.547
		l-4.549-1.567c-1.048-0.359-1.896,0.197-1.896,1.243v7.96C1582.157,10.36,1583.004,11.5,1584.052,11.861z"/>
	<path fill="#11A1D3" d="M1692.069,28.27c-1.507-8.549-6.253-15.999-13.364-20.977c-5.494-3.846-11.932-5.879-18.616-5.879
		c-10.607,0-20.567,5.181-26.645,13.859c-0.21,0.3-0.412,0.604-0.611,0.909l-0.053-0.038l-31.887,45.539l-0.134,0.203
		c-0.012,0.021-1.355,2.187-3.201,4.339c-2.453,2.859-3.993,3.604-4.395,3.655c-0.775-0.004-1.101-0.226-1.336-0.465
		c-0.938-0.952-1.347-3.323-1.33-4.639l0.001-0.026l-0.001-44.449l-8.341,0.001l0.003,44.321c-0.019,0.954,0.03,6.845,3.684,10.599
		c1.908,1.96,4.444,2.997,7.337,2.997c3.383,0,6.847-2.103,10.59-6.428c2.107-2.435,3.665-4.854,4.019-5.414l31.691-45.259
		l0.065,0.046c0.232-0.374,0.476-0.743,0.729-1.107c4.519-6.451,11.926-10.302,19.814-10.302c4.966,0,9.749,1.511,13.833,4.371
		c5.286,3.701,8.814,9.238,9.935,15.594c1.121,6.355-0.301,12.766-4.001,18.051c-4.519,6.453-11.928,10.305-19.814,10.305
		c-4.966,0-9.749-1.512-13.833-4.371c-5.424-3.799-8.809-9.439-9.903-15.492l-7.613,10.874V76.27h8.34V56.842
		c1.331,1.336,2.796,2.574,4.395,3.692c5.492,3.846,11.93,5.879,18.615,5.879c10.605,0,20.566-5.182,26.646-13.861
		C1691.665,45.442,1693.577,36.818,1692.069,28.27z"/>
	<path fill="#11A1D3" d="M1273.385,7.672c-5.493-3.846-11.931-5.879-18.615-5.879c-9.965,0-19.355,4.576-25.496,12.326l-0.026-0.019
		l-0.346,0.493c-0.001,0.002-0.003,0.004-0.004,0.006v0l-23.47,33.518l-0.007-0.004c-0.008,0.011-0.016,0.023-0.024,0.036
		c-4.519,6.453-11.926,10.305-19.815,10.305c-4.965,0-9.748-1.512-13.832-4.371c-10.91-7.642-13.572-22.736-5.933-33.648
		c4.518-6.451,11.925-10.302,19.813-10.302c4.965,0,9.749,1.511,13.833,4.371c4.576,3.204,7.833,7.784,9.354,13.08l5.708-8.151
		c-2.382-4.649-5.877-8.678-10.278-11.759c-5.494-3.847-11.931-5.88-18.616-5.88c-10.607,0-20.567,5.18-26.645,13.858
		c-10.276,14.679-6.696,34.984,7.981,45.263c5.494,3.846,11.93,5.879,18.615,5.879c10.417,0,20.209-5.001,26.314-13.402l0.014,0.01
		l23.819-34.018l0.006,0.003c4.563-5.816,11.583-9.254,19.035-9.254c4.965,0,9.749,1.511,13.833,4.371
		c5.287,3.701,8.815,9.239,9.936,15.594c1.12,6.355-0.301,12.766-4.002,18.051c-4.519,6.452-11.926,10.305-19.815,10.305
		c-4.965,0-9.748-1.512-13.831-4.371c-4.687-3.282-7.85-7.939-9.33-13.049l-5.698,8.138c0.892,1.738,1.945,3.406,3.156,4.978
		l-0.005,0.003l22.435,29.059l6.601-5.097l-9.144-11.845c1.906,0.347,3.851,0.524,5.817,0.524c10.607,0,20.569-5.182,26.647-13.861
		c4.978-7.111,6.89-15.735,5.383-24.283C1285.243,20.1,1280.496,12.65,1273.385,7.672z"/>
	<path fill="#11A1D3" d="M1506.265,10.135c2.413-3.215,5.267-6.015,8.446-8.339h-96.63c-9.225,0-16.678,10.823-17.687,12.355
		l-31.85,45.487l-0.134,0.203c-0.013,0.021-1.357,2.186-3.203,4.339c-2.452,2.858-3.992,3.604-4.393,3.654
		c-0.775-0.003-1.101-0.226-1.337-0.465c-0.938-0.952-1.347-3.323-1.331-4.639l0.001-0.027l-0.001-27.647
		c0.046-2.124-0.118-4.268-0.494-6.407c-1.508-8.549-6.254-15.999-13.366-20.977c-5.493-3.847-11.93-5.879-18.616-5.879
		c-10.606,0-20.567,5.18-26.645,13.858c-10.276,14.679-6.696,34.984,7.982,45.263c5.493,3.846,11.929,5.878,18.614,5.878
		c9.279,0,18.063-3.965,24.186-10.767l0,6.552c-0.018,0.95,0.029,6.844,3.684,10.6c1.907,1.961,4.444,2.997,7.338,2.997
		c3.381,0,6.845-2.102,10.589-6.428c2.107-2.434,3.666-4.854,4.018-5.414l18.113-25.87h39.511v-8.339h-33.671l7.87-11.24
		l0.077-0.115c1.764-2.704,6.916-8.632,10.743-8.632h42.118v55.997h8.34V10.135H1506.265z M1345.438,48.148
		c-4.518,6.453-11.926,10.305-19.815,10.305c-4.964,0-9.748-1.512-13.832-4.371c-10.91-7.641-13.571-22.736-5.933-33.648
		c4.518-6.451,11.925-10.302,19.814-10.302c4.965,0,9.749,1.512,13.833,4.372c5.286,3.701,8.815,9.238,9.935,15.593
		c0.248,1.399,0.37,2.802,0.373,4.196h-0.004v0.552C1349.71,39.581,1348.216,44.182,1345.438,48.148z"/>
</g>
</svg>
